<svg width="12" height="13" viewBox="0 0 12 13" fill="none" xmlns="http://www.w3.org/2000/svg">
<g id="&#240;&#159;&#166;&#134; icon &#34;x circle&#34;" opacity="0.9">
<path id="Vector" d="M1.75736 2.25736C0.632141 3.38258 -1.18561e-08 4.9087 0 6.5C1.18561e-08 8.0913 0.632141 9.61742 1.75736 10.7426C2.88258 11.8679 4.4087 12.5 6 12.5C7.5913 12.5 9.11742 11.8679 10.2426 10.7426C11.3679 9.61742 12 8.0913 12 6.5C12 4.9087 11.3679 3.38258 10.2426 2.25736C9.11742 1.13214 7.5913 0.5 6 0.5C4.4087 0.5 2.88258 1.13214 1.75736 2.25736ZM11.2 6.5C11.2 9.36727 8.86727 11.7 6 11.7C3.13273 11.7 0.800011 9.36727 0.800011 6.5C0.800011 3.63273 3.13273 1.30001 6 1.30001C8.86727 1.30001 11.2 3.63273 11.2 6.5Z" fill="#D50D00"/>
<path id="Vector_2" d="M8.9397 6.84559H4.03172L5.74308 8.55694L5.3397 8.96033L2.9397 6.56033L5.3397 4.16033L5.74308 4.56371L4.03169 6.2751H8.9397V6.84559Z" fill="#D50D00"/>
</g>
</svg>
