<svg width="20" height="20" viewBox="0 0 20 20" fill="none" xmlns="http://www.w3.org/2000/svg">
<g id="&#240;&#159;&#166;&#134; icon &#34;x circle&#34;" opacity="0.9">
<path id="Vector" d="M17.0711 17.0711C15.1957 18.9464 12.6522 20 10 20C7.34783 20 4.8043 18.9464 2.92893 17.0711C1.05357 15.1957 1.97602e-08 12.6522 0 10C-1.97602e-08 7.34784 1.05357 4.8043 2.92893 2.92893C4.8043 1.05357 7.34783 0 10 0C12.6522 0 15.1957 1.05357 17.0711 2.92893C18.9464 4.8043 20 7.34784 20 10C20 12.6522 18.9464 15.1957 17.0711 17.0711ZM10 1.33335C5.22122 1.33335 1.33335 5.22122 1.33335 10C1.33335 14.7788 5.22122 18.6666 10 18.6666C14.7788 18.6666 18.6666 14.7788 18.6666 10C18.6666 5.22122 14.7788 1.33335 10 1.33335Z" fill="currentColor"/>
<path id="Vector_2" d="M9.42407 5.10051V13.2805L6.57181 10.4282L5.89951 11.1005L9.89951 15.1005L13.8995 11.1005L13.2272 10.4282L10.3749 13.2805V5.10051H9.42407Z" fill="currentColor"/>
</g>
</svg>
