<svg width="15" height="16" viewBox="0 0 15 16" fill="none" xmlns="http://www.w3.org/2000/svg">
<path id="Union" fill-rule="evenodd" clip-rule="evenodd" d="M0.370499 3.9127C0.128935 3.55118 0 3.12614 0 2.69133C0.000654607 2.10848 0.232482 1.54968 0.644623 1.13754C1.05676 0.725402 1.61556 0.493575 2.19841 0.49292C2.63322 0.49292 3.05826 0.621855 3.41978 0.863419C3.78131 1.10498 4.06309 1.44833 4.22948 1.85004C4.39587 2.25174 4.43941 2.69377 4.35458 3.12022C4.26976 3.54667 4.06038 3.93839 3.75292 4.24584C3.44547 4.5533 3.05375 4.76268 2.6273 4.8475C2.20085 4.93233 1.75882 4.88879 1.35712 4.7224C0.955409 4.55601 0.612064 4.27423 0.370499 3.9127ZM2.8091 1.77738C2.62833 1.65659 2.41581 1.59213 2.19841 1.59213C1.90698 1.59245 1.62759 1.70837 1.42152 1.91444C1.21545 2.12051 1.09953 2.3999 1.09921 2.69133C1.09921 2.90873 1.16367 3.12125 1.28446 3.30202C1.40524 3.48278 1.57691 3.62367 1.77776 3.70687C1.97862 3.79006 2.19963 3.81183 2.41286 3.76942C2.62608 3.727 2.82194 3.62231 2.97567 3.46859C3.12939 3.31486 3.23408 3.119 3.2765 2.90578C3.31891 2.69255 3.29714 2.47154 3.21395 2.27068C3.13075 2.06983 2.98986 1.89816 2.8091 1.77738ZM5.77075 2.14172H14.8392V3.24093H5.77075V2.14172ZM14.8392 7.63782H5.77075V8.73702H14.8392V7.63782ZM3.41978 10.0153C3.05826 10.2569 2.63322 10.3858 2.19841 10.3858C1.61556 10.3852 1.05676 10.1534 0.644623 9.74122C0.232482 9.32908 0.000654607 8.77028 0 8.18743C0 7.75262 0.128935 7.32758 0.370499 6.96605C0.612064 6.60453 0.955409 6.32275 1.35712 6.15636C1.75882 5.98997 2.20085 5.94643 2.6273 6.03126C3.05375 6.11608 3.44547 6.32546 3.75292 6.63291C4.06038 6.94037 4.26976 7.33209 4.35458 7.75854C4.43941 8.18499 4.39587 8.62702 4.22948 9.02872C4.06309 9.43043 3.78131 9.77377 3.41978 10.0153ZM2.8091 7.27347C2.62833 7.15269 2.41581 7.08822 2.19841 7.08822C1.90698 7.08855 1.62759 7.20446 1.42152 7.41053C1.21545 7.6166 1.09953 7.896 1.09921 8.18743C1.09921 8.40483 1.16367 8.61735 1.28446 8.79811C1.40524 8.97888 1.57691 9.11976 1.77776 9.20296C1.97862 9.28616 2.19963 9.30793 2.41286 9.26551C2.62608 9.2231 2.82194 9.11841 2.97567 8.96468C3.12939 8.81096 3.23408 8.6151 3.2765 8.40187C3.31891 8.18865 3.29714 7.96763 3.21395 7.76678C3.13075 7.56593 2.98986 7.39425 2.8091 7.27347ZM14.8392 13.1338H5.77075V14.233H14.8392V13.1338ZM3.41978 15.5113C3.05826 15.7529 2.63322 15.8818 2.19841 15.8818C1.61556 15.8812 1.05676 15.6493 0.644623 15.2372C0.232482 14.825 0.000654607 14.2663 0 13.6834C0 13.2486 0.128935 12.8236 0.370499 12.462C0.612064 12.1005 0.955409 11.8187 1.35712 11.6523C1.75882 11.4859 2.20085 11.4424 2.6273 11.5272C3.05375 11.6121 3.44547 11.8214 3.75292 12.1289C4.06038 12.4363 4.26976 12.8281 4.35458 13.2545C4.43941 13.681 4.39587 14.123 4.22948 14.5247C4.06309 14.9264 3.78131 15.2697 3.41978 15.5113ZM2.8091 12.7694C2.62833 12.6487 2.41581 12.5842 2.19841 12.5842C1.90698 12.5845 1.62759 12.7004 1.42152 12.9065C1.21545 13.1126 1.09953 13.392 1.09921 13.6834C1.09921 13.9008 1.16367 14.1133 1.28446 14.2941C1.40524 14.4748 1.57691 14.6157 1.77776 14.6989C1.97862 14.7821 2.19963 14.8039 2.41286 14.7615C2.62608 14.7191 2.82194 14.6144 2.97567 14.4607C3.12939 14.3069 3.23408 14.1111 3.2765 13.8978C3.31891 13.6846 3.29714 13.4636 3.21395 13.2627C3.13075 13.0619 2.98986 12.8902 2.8091 12.7694Z" fill="currentColor"/>
</svg>
