<svg width="15" height="17" viewBox="0 0 15 17" fill="none" xmlns="http://www.w3.org/2000/svg">
<path id="Vector" d="M14.497 6.842L7.91907 0.790321C7.70524 0.593585 7.42363 0.487115 7.13312 0.493164C6.84261 0.499214 6.56569 0.617315 6.36022 0.822782L0.310466 6.87257L0 7.183V16.1016H5.82972V10.5369H9.00956V16.1016H14.8393V7.15694L14.497 6.842ZM7.15591 1.55289C7.16525 1.55289 7.15949 1.55491 7.15548 1.55885C7.15134 1.55491 7.14657 1.55289 7.15591 1.55289ZM13.7793 15.0417H10.0695V10.5369C10.0695 10.2558 9.95784 9.98619 9.75906 9.78742C9.56028 9.58864 9.29068 9.47696 9.00956 9.47696H5.82972C5.5486 9.47696 5.279 9.58864 5.08022 9.78742C4.88144 9.98619 4.76977 10.2558 4.76977 10.5369V15.0417H1.05995V7.62205L7.15591 1.57226C7.15634 1.57187 7.15637 1.5715 7.15671 1.57111L13.7793 7.62205V15.0417Z" fill="currentColor"/>
</svg>
