<svg width="15" height="15" viewBox="0 0 15 15" fill="none" xmlns="http://www.w3.org/2000/svg">
<path id="Union" fill-rule="evenodd" clip-rule="evenodd" d="M7.49288 0.0733643C9.46069 0.0733643 11.3479 0.855074 12.7394 2.24653C14.1308 3.63798 14.9125 5.52519 14.9125 7.493C14.9125 9.46081 14.1308 11.348 12.7394 12.7395C11.3479 14.1309 9.46069 14.9126 7.49288 14.9126C5.52507 14.9126 3.63786 14.1309 2.2464 12.7395C0.854952 11.348 0.0732422 9.46081 0.0732422 7.493C0.0732422 5.52519 0.854952 3.63798 2.2464 2.24653C3.63786 0.855074 5.52507 0.0733643 7.49288 0.0733643ZM1.06254 7.493C1.06254 11.0387 3.9472 13.9233 7.49288 13.9233C11.0386 13.9233 13.9232 11.0387 13.9232 7.493C13.9232 3.94732 11.0386 1.06266 7.49288 1.06266C3.9472 1.06266 1.06254 3.94732 1.06254 7.493ZM7.13151 6.86521V3.02816L8.12079 3.02814L8.12077 6.86521H11.9579L11.9578 7.8545H8.12079V11.6915L7.13151 11.6916V7.85447L3.29444 7.8545L3.29446 6.86521H7.13151Z" fill="currentColor"/>
</svg>
