<svg width="46" height="47" viewBox="0 0 46 47" fill="none" xmlns="http://www.w3.org/2000/svg">
<g filter="url(#filter0_d_908_1365)">
<circle cx="23" cy="23" r="13" fill="white"/>
</g>
<path d="M23 13C18.5833 13 15 16.6302 15 21.1046C15.0104 22.0649 15.1823 23.0146 15.5156 23.9116L15.4948 23.9063C16.3437 26.592 20.5365 30.7709 22.9948 33.2667H23V33.2614C25.0104 31.2247 28.1719 27.9586 29.7292 25.4892C30.0781 24.9299 30.3542 24.397 30.5104 23.9063L30.4844 23.9116C30.8177 23.0146 30.9948 22.0649 31 21.1046C31 16.6302 27.4219 13 23 13ZM23 17.9862C24.6979 17.9862 26.0781 19.3844 26.0781 21.1046C26.0781 22.8247 24.6979 24.2229 23 24.2229C21.3021 24.2176 19.9271 22.8247 19.9271 21.1046C19.9219 19.3844 21.3021 17.9915 23 17.9862Z" fill="#D50D00"/>
<path d="M22 36V46C22 46.5523 22.4477 47 23 47C23.5523 47 24 46.5523 24 46L24 36H22Z" fill="black"/>
<defs>
<filter id="filter0_d_908_1365" x="0" y="0" width="46" height="46" filterUnits="userSpaceOnUse" color-interpolation-filters="sRGB">
<feFlood flood-opacity="0" result="BackgroundImageFix"/>
<feColorMatrix in="SourceAlpha" type="matrix" values="0 0 0 0 0 0 0 0 0 0 0 0 0 0 0 0 0 0 127 0" result="hardAlpha"/>
<feOffset/>
<feGaussianBlur stdDeviation="5"/>
<feComposite in2="hardAlpha" operator="out"/>
<feColorMatrix type="matrix" values="0 0 0 0 0 0 0 0 0 0 0 0 0 0 0 0 0 0 0.25 0"/>
<feBlend mode="normal" in2="BackgroundImageFix" result="effect1_dropShadow_908_1365"/>
<feBlend mode="normal" in="SourceGraphic" in2="effect1_dropShadow_908_1365" result="shape"/>
</filter>
</defs>
</svg>
