<svg width="21" height="20" viewBox="0 0 21 20" fill="none" xmlns="http://www.w3.org/2000/svg">
<g id="&#240;&#159;&#166;&#134; icon &#34;x circle&#34;" opacity="0.9">
<path id="Vector" d="M17.2132 2.92893C15.3378 1.05357 12.7943 -1.97602e-08 10.1421 0C7.48995 1.97602e-08 4.94642 1.05357 3.07105 2.92893C1.19569 4.8043 0.14212 7.34783 0.14212 10C0.14212 12.6522 1.19569 15.1957 3.07105 17.0711C4.94642 18.9464 7.48995 20 10.1421 20C12.7943 20 15.3378 18.9464 17.2132 17.0711C19.0886 15.1957 20.1421 12.6522 20.1421 10C20.1421 7.34783 19.0886 4.8043 17.2132 2.92893ZM10.1421 18.6666C5.36334 18.6666 1.47547 14.7788 1.47547 10C1.47547 5.22122 5.36334 1.33335 10.1421 1.33335C14.9209 1.33335 18.8088 5.22122 18.8088 10C18.8088 14.7788 14.9209 18.6666 10.1421 18.6666Z" fill="currentColor"/>
<path id="Vector_2" d="M9.56619 14.8995V6.71954L6.71393 9.5718L6.04163 8.89949L10.0416 4.89949L14.0416 8.89949L13.3693 9.5718L10.517 6.71948V14.8995H9.56619Z" fill="currentColor"/>
</g>
</svg>
