<svg width="20" height="20" viewBox="0 0 20 20" fill="none" xmlns="http://www.w3.org/2000/svg">
<path id="Vector" fill-rule="evenodd" clip-rule="evenodd" d="M0 10C0 4.47692 4.47692 0 10 0C15.5231 0 20 4.47692 20 10C20 15.5231 15.5231 20 10 20C4.47692 20 0 15.5231 0 10ZM13.7026 8.13949C13.7641 8.05749 13.8086 7.96402 13.8335 7.86456C13.8584 7.76511 13.8632 7.66168 13.8475 7.56036C13.8319 7.45904 13.7962 7.36187 13.7424 7.27456C13.6887 7.18725 13.618 7.11156 13.5346 7.05195C13.4512 6.99233 13.3567 6.94999 13.2567 6.92741C13.1567 6.90484 13.0532 6.90248 12.9523 6.92047C12.8514 6.93847 12.755 6.97646 12.669 7.03222C12.583 7.08797 12.5089 7.16036 12.4513 7.24513L9.13231 11.8913L7.46667 10.2256C7.32085 10.0898 7.12798 10.0158 6.9287 10.0193C6.72941 10.0228 6.53927 10.1036 6.39834 10.2445C6.2574 10.3854 6.17667 10.5756 6.17315 10.7748C6.16964 10.9741 6.24361 11.167 6.37949 11.3128L8.68718 13.6205C8.76614 13.6994 8.86133 13.7602 8.96614 13.7986C9.07095 13.837 9.18287 13.8522 9.29412 13.843C9.40537 13.8338 9.51329 13.8006 9.61039 13.7455C9.70749 13.6904 9.79144 13.6149 9.85641 13.5241L13.7026 8.13949Z" fill="#D50D00"/>
</svg>
