<svg width="20" height="24" viewBox="0 0 20 24" fill="none" xmlns="http://www.w3.org/2000/svg">
<path id="Vector" d="M9.5975 0C4.29888 0 0 4.29888 0 9.5975C0.0124959 10.7347 0.218693 11.8594 0.618589 12.9216L0.593596 12.9154C1.61208 16.0958 6.64202 21.0445 9.59125 24H9.5975V23.9938C12.0094 21.5819 15.8021 17.7141 17.6704 14.7899C18.089 14.1276 18.4202 13.4965 18.6077 12.9154L18.5764 12.9216C18.9763 11.8594 19.1888 10.7347 19.195 9.5975C19.195 4.29888 14.9024 0 9.5975 0ZM9.5975 5.90471C11.6345 5.90471 13.2903 7.56053 13.2903 9.5975C13.2903 11.6345 11.6345 13.2903 9.5975 13.2903C7.56053 13.284 5.91096 11.6345 5.91096 9.5975C5.90471 7.56053 7.56053 5.91096 9.5975 5.90471Z" fill="#828282"/>
</svg>
