<svg width="15" height="16" viewBox="0 0 15 16" fill="none" xmlns="http://www.w3.org/2000/svg">
<path fill-rule="evenodd" clip-rule="evenodd" d="M11.8134 8.47974L13.8022 9.78101C14.1216 9.98966 14.3837 10.2748 14.5648 10.6105C14.746 10.9463 14.8403 11.3219 14.8393 11.7034V14.3463H11.6248V13.3572H13.8502V11.7034C13.851 11.4862 13.7974 11.2723 13.6945 11.0811C13.5915 10.8899 13.4424 10.7275 13.2607 10.6086L10.508 8.80738L11.7108 6.60207C11.8167 6.39706 11.8719 6.16972 11.872 5.93901V3.71355C11.8729 3.2805 11.7474 2.85662 11.5109 2.49387C11.2743 2.13112 10.9371 1.84526 10.5405 1.67135C10.1439 1.49744 9.70523 1.44303 9.27818 1.51479C8.85112 1.58656 8.45428 1.78138 8.13632 2.07536L7.46411 1.34971C7.92299 0.924264 8.49612 0.642088 9.11312 0.537829C9.73013 0.433569 10.3642 0.511766 10.9373 0.762815C11.5105 1.01387 11.9979 1.42684 12.3397 1.95103C12.6814 2.47521 12.8627 3.0878 12.8611 3.71355V5.93901C12.8606 6.33522 12.7639 6.72537 12.5792 7.07591L11.8134 8.47974ZM7.3625 9.4689L9.35129 10.7702C9.67063 10.9788 9.93277 11.264 10.1139 11.5997C10.295 11.9354 10.3893 12.3111 10.3884 12.6925V15.3355H0L0.0154546 12.6896C0.014817 12.3087 0.109324 11.9335 0.290399 11.5984C0.471474 11.2632 0.733385 10.9785 1.05236 10.7702L3.02959 9.47628L2.25971 8.06485C2.07487 7.71459 1.97917 7.32419 1.98106 6.92816V4.7027C1.98106 2.92793 3.42235 1.48401 5.19397 1.48401C6.047 1.48531 6.86467 1.82492 7.46761 2.42833C8.07055 3.03174 8.40953 3.84968 8.41016 4.7027V6.92816C8.40966 7.32437 8.3129 7.71453 8.12821 8.06506L7.3625 9.4689ZM0.994842 14.3464H9.39926V12.6926C9.4 12.4754 9.34646 12.2615 9.2435 12.0703C9.14054 11.8791 8.99144 11.7167 8.80973 11.5977L6.05702 9.79653L7.25988 7.59123C7.36571 7.38622 7.42098 7.15887 7.42107 6.92816V4.7027C7.42107 4.11248 7.1866 3.54642 6.76925 3.12907C6.3519 2.71171 5.78584 2.47724 5.19561 2.47724C4.60538 2.47724 4.03933 2.71171 3.62198 3.12907C3.20462 3.54642 2.97015 4.11248 2.97015 4.7027V6.92816C2.96925 7.1586 3.02337 7.38592 3.12801 7.59123L4.33504 9.80408L1.59395 11.5977C1.41224 11.7166 1.26313 11.8791 1.16017 12.0703C1.05722 12.2615 1.00368 12.4754 1.00442 12.6925L0.994842 14.3464Z" fill="currentColor"/>
</svg>
