<svg width="16" height="16" viewBox="0 0 16 16" fill="none" xmlns="http://www.w3.org/2000/svg">
<g id="&#240;&#159;&#166;&#134; icon &#34;equalizer&#34;">
<path id="Vector" d="M4.33417 13.3333H0L0 14.4H4.33417C4.45245 14.8579 4.71956 15.2636 5.0935 15.5532C5.46744 15.8429 5.92702 16 6.4 16C6.87298 16 7.33256 15.8429 7.7065 15.5532C8.08044 15.2636 8.34755 14.8579 8.46583 14.4H16V13.3333H8.46583C8.34755 12.8754 8.08044 12.4697 7.7065 12.1801C7.33256 11.8905 6.87298 11.7333 6.4 11.7333C5.92702 11.7333 5.46744 11.8905 5.0935 12.1801C4.71956 12.4697 4.45245 12.8754 4.33417 13.3333ZM7.46667 13.8667C7.46667 14.0776 7.40411 14.2839 7.2869 14.4593C7.16969 14.6347 7.0031 14.7714 6.8082 14.8521C6.61329 14.9329 6.39882 14.954 6.1919 14.9128C5.98499 14.8717 5.79493 14.7701 5.64575 14.6209C5.49658 14.4717 5.39499 14.2817 5.35383 14.0748C5.31267 13.8678 5.3338 13.6534 5.41453 13.4585C5.49526 13.2636 5.63198 13.097 5.80739 12.9798C5.9828 12.8626 6.18903 12.8 6.4 12.8C6.6828 12.8003 6.95393 12.9128 7.1539 13.1128C7.35387 13.3127 7.46635 13.5839 7.46667 13.8667Z" fill="#212121"/>
<path id="Vector_2" d="M9.13417 7.46663H0L0 8.53329H9.13417C9.25245 8.99125 9.51956 9.39692 9.8935 9.68654C10.2674 9.97617 10.727 10.1333 11.2 10.1333C11.673 10.1333 12.1326 9.97617 12.5065 9.68654C12.8804 9.39692 13.1475 8.99125 13.2658 8.53329H16V7.46663H13.2658C13.1475 7.00867 12.8804 6.603 12.5065 6.31338C12.1326 6.02375 11.673 5.86659 11.2 5.86659C10.727 5.86659 10.2674 6.02375 9.8935 6.31338C9.51956 6.603 9.25245 7.00867 9.13417 7.46663ZM12.2667 7.99996C12.2667 8.21093 12.2041 8.41716 12.0869 8.59257C11.9697 8.76798 11.8031 8.9047 11.6082 8.98543C11.4133 9.06616 11.1988 9.08729 10.9919 9.04613C10.785 9.00497 10.5949 8.90338 10.4458 8.75421C10.2966 8.60503 10.195 8.41497 10.1538 8.20806C10.1127 8.00114 10.1338 7.78667 10.2145 7.59176C10.2953 7.39686 10.432 7.23027 10.6074 7.11306C10.7828 6.99585 10.989 6.93329 11.2 6.93329C11.4828 6.93361 11.7539 7.04609 11.9539 7.24606C12.1539 7.44603 12.2663 7.71716 12.2667 7.99996Z" fill="#212121"/>
<path id="Vector_3" d="M2.20083 1.60008H0L0 2.66675H2.20083C2.31912 3.1247 2.58622 3.53037 2.96016 3.82C3.33411 4.10962 3.79368 4.26678 4.26667 4.26678C4.73965 4.26678 5.19923 4.10962 5.57317 3.82C5.94711 3.53037 6.21421 3.1247 6.3325 2.66675L16 2.66675V1.60008L6.3325 1.60008C6.21421 1.14213 5.94711 0.736457 5.57317 0.446831C5.19923 0.157205 4.73965 4.24385e-05 4.26667 4.24385e-05C3.79368 4.24385e-05 3.33411 0.157205 2.96016 0.446831C2.58622 0.736457 2.31912 1.14213 2.20083 1.60008ZM5.33333 2.13341C5.33333 2.34438 5.27077 2.55061 5.15357 2.72602C5.03636 2.90143 4.86977 3.03815 4.67486 3.11889C4.47995 3.19962 4.26548 3.22074 4.05857 3.17958C3.85166 3.13843 3.6616 3.03684 3.51242 2.88766C3.36324 2.73848 3.26165 2.54842 3.2205 2.34151C3.17934 2.1346 3.20046 1.92013 3.2812 1.72522C3.36193 1.53031 3.49865 1.36372 3.67406 1.24651C3.84947 1.12931 4.0557 1.06675 4.26667 1.06675C4.54947 1.06706 4.82059 1.17955 5.02056 1.37952C5.22053 1.57949 5.33302 1.85061 5.33333 2.13341Z" fill="#212121"/>
</g>
</svg>
