<svg width="37" height="30" viewBox="0 0 37 30" fill="none" xmlns="http://www.w3.org/2000/svg">
<path fill-rule="evenodd" clip-rule="evenodd" d="M35.0277 26.467C34.1608 26.467 33.3589 26.6187 33.2071 26.1419C32.6003 23.9095 29.3492 23.8662 28.699 26.1419C28.6557 26.337 28.4823 26.467 28.2872 26.467H19.8346C19.6395 26.467 19.4661 26.337 19.4011 26.1419C18.7942 23.9095 15.5432 23.8662 14.893 26.1419C14.8497 26.337 14.6763 26.467 14.4812 26.467H11.8154C11.6203 26.467 11.4469 26.337 11.4036 26.1419C10.775 23.9095 7.54569 23.8662 6.89549 26.1419C6.76544 26.597 6.11524 26.467 5.42169 26.467C4.33801 26.467 3.47107 25.5784 3.47107 24.4947V21.287C3.47107 21.0486 3.64446 20.8536 3.90454 20.8536H26.3583V12.5526C26.3583 12.3142 26.5534 12.1191 26.7918 12.1191H32.1885C34.8326 12.1191 37 14.2865 37 16.9307V24.4947C36.9783 25.5784 36.0897 26.467 35.0277 26.467ZM33.944 25.6001C34.7026 25.6001 36.1114 25.7951 36.1114 24.4947V16.9307C36.1114 14.7633 34.3342 12.9861 32.1885 12.9861H27.2252V21.287C27.2252 21.5254 27.0302 21.7205 26.7918 21.7205H4.31634V24.4947C4.31634 25.1016 4.81483 25.6001 5.40001 25.6001H6.15859C7.22059 22.9126 11.0351 22.9126 12.1188 25.6001H14.1778C15.2398 22.9126 19.0543 22.9126 20.138 25.6001H27.9838C29.0458 22.9126 32.8604 22.9126 33.944 25.6001Z" fill="currentColor"/>
<path fill-rule="evenodd" clip-rule="evenodd" d="M36.5448 19.5318H31.2348C30.0428 19.5318 29.0458 18.5565 29.0458 17.3428V12.5746C29.0458 12.3145 29.2409 12.1411 29.4793 12.1411H32.1885C34.8326 12.1411 36.9783 14.2868 36.9783 16.931V19.12C36.9783 19.3367 36.7833 19.5318 36.5448 19.5318ZM29.9128 12.9864V17.3428C29.9128 18.0797 30.4979 18.6648 31.2348 18.6648H36.1114V16.931C36.1114 14.7636 34.3341 12.9864 32.1885 12.9864H29.9128ZM17.147 30.0001C15.3698 30.0001 13.9394 28.5696 13.9394 26.7924C13.9394 25.0152 15.3698 23.5847 17.147 23.5847C18.9243 23.5847 20.3547 25.0152 20.3547 26.7924C20.3547 28.5696 18.9243 30.0001 17.147 30.0001ZM17.147 24.4517C15.8466 24.4517 14.8063 25.492 14.8063 26.7924C14.8063 28.0928 15.8466 29.1332 17.147 29.1332C18.4475 29.1332 19.4878 28.0928 19.4878 26.7924C19.4878 25.492 18.4475 24.4517 17.147 24.4517ZM9.12785 30.0001C7.37229 30.0001 5.92017 28.5696 5.92017 26.7924C5.92017 25.0152 7.37229 23.5847 9.12785 23.5847C10.9051 23.5847 12.3572 25.0152 12.3572 26.7924C12.3572 28.5696 10.9051 30.0001 9.12785 30.0001ZM9.12785 24.4517C7.84911 24.4517 6.78711 25.492 6.78711 26.7924C6.78711 28.0928 7.84911 29.1332 9.12785 29.1332C10.4283 29.1332 11.4903 28.0928 11.4903 26.7924C11.4903 25.492 10.4283 24.4517 9.12785 24.4517ZM30.9531 30.0001C29.1758 30.0001 27.7454 28.5696 27.7454 26.7924C27.7454 25.0152 29.1758 23.5847 30.9531 23.5847C32.7303 23.5847 34.1608 25.0152 34.1608 26.7924C34.1608 28.5696 32.7303 30.0001 30.9531 30.0001ZM30.9531 24.4517C29.6527 24.4517 28.6123 25.492 28.6123 26.7924C28.6123 28.0928 29.6527 29.1332 30.9531 29.1332C32.2535 29.1332 33.2938 28.0928 33.2938 26.7924C33.2938 25.492 32.2535 24.4517 30.9531 24.4517Z" fill="currentColor"/>
<path fill-rule="evenodd" clip-rule="evenodd" d="M9.12786 28.3962C7.02553 28.3962 7.02553 25.1885 9.12786 25.1885C11.2519 25.1885 11.2519 28.3962 9.12786 28.3962ZM9.12786 26.0555C8.17422 26.0555 8.17422 27.5293 9.12786 27.5293C10.1032 27.5293 10.1032 26.0555 9.12786 26.0555ZM17.1471 28.3962C15.0447 28.3962 15.0447 25.1885 17.1471 25.1885C19.2711 25.1885 19.2711 28.3962 17.1471 28.3962ZM17.1471 26.0555C16.1717 26.0555 16.1717 27.5293 17.1471 27.5293C18.1224 27.5293 18.1224 26.0555 17.1471 26.0555ZM30.9531 28.3962C28.8508 28.3962 28.8508 25.1885 30.9531 25.1885C33.0771 25.1885 33.0771 28.3962 30.9531 28.3962ZM30.9531 26.0555C29.9778 26.0555 29.9778 27.5293 30.9531 27.5293C31.9284 27.5293 31.9284 26.0555 30.9531 26.0555ZM26.7918 26.4673C26.5534 26.4673 26.3583 26.2722 26.3583 26.0338V21.2873C26.3583 20.7238 27.2252 20.7238 27.2252 21.2873V26.0338C27.2252 26.2722 27.0302 26.4673 26.7918 26.4673ZM30.3462 21.309C29.5877 21.309 28.7207 21.4824 28.7207 20.8755C28.7207 20.2903 29.5877 20.442 30.3462 20.442C30.9097 20.442 30.9097 21.309 30.3462 21.309ZM36.5449 23.6064C34.2475 23.6064 34.3558 23.7364 34.3558 21.439C34.3558 20.3987 35.6346 20.6154 36.5449 20.6154C36.7833 20.6154 36.9783 20.8105 36.9783 21.0489V23.1729C36.9783 23.4113 36.7833 23.6064 36.5449 23.6064ZM35.2228 22.7394H36.1114V21.4824H35.2228V22.7394ZM7.11222 21.7208L3.08095 20.5504C2.97258 20.5287 2.86421 20.442 2.82086 20.3553L0.0466536 15.2187C-0.061714 15.002 0.0249801 14.7419 0.241715 14.6335L15.7816 6.26755L14.9147 4.64203C14.4812 3.84011 14.7846 2.8648 15.5649 2.43133L18.0357 1.10925C19.5528 0.307328 20.7665 2.60472 19.2494 3.40664L18.2307 3.97015L22.9556 12.7696C23.0639 12.9863 22.9989 13.2464 22.7822 13.3548L7.30728 21.6774C7.24226 21.6991 7.17724 21.7208 7.11222 21.7208ZM3.49274 19.7701L7.06887 20.8321L22.0019 12.7913L17.2554 3.99183C16.7786 3.10321 19.5095 2.97317 19.0327 2.06288C18.9243 1.84615 18.6425 1.75945 18.4475 1.8895C14.8497 3.81844 15.0881 3.10321 16.7569 6.24587C16.8653 6.46261 16.8003 6.72269 16.5835 6.83106L1.02196 15.1754L3.49274 19.7701Z" fill="currentColor"/>
<path fill-rule="evenodd" clip-rule="evenodd" d="M7.48065 19.1846C7.32893 19.1846 7.17722 19.0979 7.09052 18.9678L5.07489 15.175C4.79313 14.6765 5.5517 14.2647 5.83346 14.7632L7.87077 18.5561C8.02248 18.8378 7.80575 19.1846 7.48065 19.1846ZM11.1435 17.234C10.9918 17.234 10.84 17.1473 10.7533 16.9956L8.71604 13.2244C8.45595 12.7259 9.21453 12.2924 9.49628 12.8126L11.5119 16.5838C11.6853 16.8872 11.4686 17.234 11.1435 17.234ZM14.7846 15.2617C14.6329 15.2617 14.4812 15.175 14.4162 15.0449L12.3789 11.2521C12.1188 10.7536 12.8774 10.3418 13.1374 10.8403L15.1747 14.6331C15.3265 14.9149 15.1097 15.2617 14.7846 15.2617ZM18.4474 13.2894C18.2957 13.2894 18.144 13.2244 18.0573 13.0727L16.0417 9.27979C15.7599 8.78129 16.5185 8.3695 16.8003 8.86799L18.8159 12.6609C18.9893 12.9426 18.7725 13.2894 18.4474 13.2894ZM22.2403 21.7204C21.3734 21.7204 22.197 20.2032 21.4817 20.2032C19.0977 20.2032 19.3577 19.9648 19.3577 21.2869C19.3577 21.8504 18.4908 21.8504 18.4908 21.2869V20.5283C18.4908 19.8781 19.0326 19.3363 19.6828 19.3363H21.4817C22.1319 19.3363 22.6738 19.8781 22.6738 20.5283C22.6738 21.0268 22.8038 21.7204 22.2403 21.7204Z" fill="currentColor"/>
<path fill-rule="evenodd" clip-rule="evenodd" d="M21.3301 20.203H19.8346C19.5962 20.203 19.4011 20.008 19.4011 19.7696V14.4596C19.4011 13.8744 20.2681 13.8744 20.2681 14.4596V19.3361H20.8966V13.6576C20.8966 13.0725 21.7635 13.0725 21.7635 13.6576V19.7696C21.7635 20.008 21.5685 20.203 21.3301 20.203Z" fill="currentColor"/>
</svg>
