<svg width="15" height="15" viewBox="0 0 15 15" fill="none" xmlns="http://www.w3.org/2000/svg">
<path d="M14.5308 7.03171H8.59344C8.3347 7.03171 8.12471 6.82172 8.12471 6.56297C8.12471 6.30423 8.3347 6.09424 8.59344 6.09424H14.5308C14.7895 6.09424 14.9995 6.30423 14.9995 6.56297C14.9995 6.82172 14.7895 7.03171 14.5308 7.03171Z" fill="#212121"/>
<path d="M12.1871 9.3752C12.1256 9.37533 12.0646 9.36325 12.0077 9.33966C11.9508 9.31606 11.8992 9.28142 11.8558 9.23774C11.6727 9.05455 11.6727 8.7577 11.8558 8.5746L13.8683 6.5622L11.8558 4.54971C11.6727 4.36661 11.6727 4.06976 11.8558 3.88666C12.039 3.70344 12.3359 3.70344 12.519 3.88666L14.8627 6.23033C15.0458 6.41343 15.0458 6.71029 14.8627 6.89339L12.519 9.23707C12.4756 9.28093 12.4239 9.31573 12.3669 9.33944C12.3099 9.36316 12.2488 9.37531 12.1871 9.3752ZM4.99988 15C4.86612 15 4.73921 14.9813 4.61239 14.9419L0.851194 13.6888C0.339394 13.51 0 13.0332 0 12.5001V1.25049C0 0.561125 0.560637 0.000488281 1.25 0.000488281C1.38365 0.000488281 1.51059 0.0192377 1.6375 0.0586115L5.39857 1.31172C5.91046 1.49045 6.24977 1.96733 6.24977 2.50037V13.75C6.24977 14.4394 5.68925 15 4.99988 15ZM1.25 0.937959C1.07812 0.937959 0.937471 1.07858 0.937471 1.25049V12.5001C0.937471 12.6332 1.02682 12.7569 1.15432 12.8013L4.8979 14.0488C4.9248 14.0575 4.95984 14.0625 4.99988 14.0625C5.17176 14.0625 5.3123 13.9219 5.3123 13.75V2.50037C5.3123 2.36728 5.22294 2.24356 5.09545 2.19918L1.35186 0.951699C1.32497 0.942998 1.28993 0.937959 1.25 0.937959Z" fill="#212121"/>
<path d="M9.53091 5.00037C9.27217 5.00037 9.06218 4.79038 9.06218 4.53164V1.71922C9.06218 1.28857 8.71165 0.937959 8.28103 0.937959H1.25C0.991258 0.937959 0.781264 0.727966 0.781264 0.469224C0.781264 0.210482 0.991258 0.000488281 1.25 0.000488281H8.28103C9.22913 0.000488281 9.99965 0.771119 9.99965 1.71922V4.53164C9.99965 4.79038 9.78965 5.00037 9.53091 5.00037ZM8.28103 13.1251H5.78103C5.52229 13.1251 5.31229 12.9151 5.31229 12.6563C5.31229 12.3976 5.52229 12.1876 5.78103 12.1876H8.28103C8.71168 12.1876 9.06218 11.837 9.06218 11.4063V8.59393C9.06218 8.33519 9.27217 8.1252 9.53091 8.1252C9.78965 8.1252 9.99965 8.33519 9.99965 8.59393V11.4063C9.99965 12.3544 9.22916 13.1251 8.28103 13.1251Z" fill="#212121"/>
</svg>
