<svg width="98" height="32" viewBox="0 0 98 32" fill="none" xmlns="http://www.w3.org/2000/svg">
<g id="&#208;&#148;&#208;&#190;&#209;&#129;&#209;&#130;&#209;&#131;&#208;&#191;&#208;&#189;&#209;&#139;&#208;&#185; &#208;&#179;&#209;&#128;&#209;&#131;&#208;&#183;_&#208;&#187;&#208;&#190;&#208;&#179;&#208;&#190; 1" clip-path="url(#clip0_6_2951)">
<g id="Layer_x0020_1">
<g id="_1708228202384">
<path id="Vector" d="M7.72113 16.4474V13.1233H6.89945V2.70072H1.62636L1.19845 11.5478C1.16423 12.2576 1.06143 12.7078 0.736172 13.1233H0V16.4474H1.83182V14.82H5.85509V16.4474H7.72113ZM3.38975 4.43198H4.98197V13.1233H2.51663C2.82474 12.829 2.99598 12.4308 3.04742 11.5132L3.38975 4.43198ZM10.4947 5.48812C10.4947 4.62242 10.8713 4.29349 11.4704 4.29349C12.0697 4.29349 12.4463 4.62242 12.4463 5.48812V12.0325C12.4463 12.8982 12.0697 13.2272 11.4704 13.2272C10.8713 13.2272 10.4947 12.8982 10.4947 12.0325V5.48812ZM8.61139 11.9114C8.61139 13.8505 9.62139 14.9585 11.4704 14.9585C13.3193 14.9585 14.3295 13.8505 14.3295 11.9114V5.60928C14.3295 3.67017 13.3193 2.56216 11.4704 2.56216C9.62139 2.56216 8.61139 3.67017 8.61139 5.60928V11.9114ZM19.2258 10.3012V12.0325C19.2258 12.8982 18.8492 13.2098 18.25 13.2098C17.6508 13.2098 17.2742 12.8982 17.2742 12.0325V5.48812C17.2742 4.62242 17.6508 4.29349 18.25 4.29349C18.8492 4.29349 19.2258 4.62242 19.2258 5.48812V6.78657H21.0064V5.60928C21.0064 3.67017 20.0477 2.56216 18.1987 2.56216C16.3497 2.56216 15.391 3.67017 15.391 5.60928V11.9114C15.391 13.8505 16.3497 14.9585 18.1987 14.9585C20.0477 14.9585 21.0064 13.8505 21.0064 11.9114V10.3012H19.2258ZM21.6056 4.43198H23.5744V14.82H25.4576V4.43198H27.4264V2.70065H21.6056V4.43198ZM34.4458 2.70065H32.4769L31.6209 6.85585L31.1758 9.67793L30.5937 6.83851L29.5664 2.70072H27.7004L30.3027 12.0499L30.2855 12.1537C30.1314 13.0367 29.5836 13.2099 28.6248 13.1406V14.8373C31.2442 15.0104 31.9804 13.9197 32.4256 11.7382L34.4458 2.70065ZM37.1166 4.43198H39.2566V14.82H41.1741V2.70065H35.2333V14.82H37.1166V4.43198ZM44.4269 9.62592H46.567V14.82H48.4844V2.70065H46.567V7.89458H44.4269V2.70065H42.5437V14.82H44.4269V9.62592ZM52.6275 14.82C54.5108 14.82 55.4352 13.7639 55.4352 11.8247V10.2492C55.4352 8.3102 54.5107 7.25406 52.6275 7.25406H51.7373V2.70065H49.854V14.82H52.6275ZM51.7373 13.0887V8.9854H52.6275C53.2267 8.9854 53.5521 9.26238 53.5521 10.1281V11.946C53.5521 12.8117 53.2268 13.0887 52.6275 13.0887H51.7373V13.0887ZM58.397 14.82V2.70065H56.5137V14.82H58.397ZM61.7012 14.82H59.7666V2.70065H61.4443V10.3705L62.1292 7.70414L63.6699 2.70065H65.7416V14.82H64.0466V6.28447L63.2762 9.26238L61.7011 14.82H61.7012ZM63.6358 -0.000278473C63.5844 0.640238 63.2933 0.796143 62.7797 0.796143C62.2832 0.796143 62.0264 0.640238 61.9751 -0.000278473H60.811C60.8452 1.17701 61.4616 1.92149 62.7797 1.92149C64.1151 1.92149 64.7828 1.17701 64.7828 -0.000278473H63.6358ZM42.5435 28.7256V18.3376H45.6252V16.6062H40.6603V28.7256H42.5435ZM49.6655 16.6062H46.8921V28.7256H48.7753V24.1722H49.6655C51.5488 24.1722 52.4733 23.116 52.4733 21.1769V19.6014C52.4733 17.6623 51.5487 16.6062 49.6655 16.6062ZM49.6655 18.3376C50.2647 18.3376 50.5901 18.6145 50.5901 19.4802V21.2982C50.5901 22.1638 50.2648 22.4409 49.6655 22.4409H48.7753V18.3376H49.6655V18.3376ZM59.5439 16.6062H57.575L56.7191 20.7614L56.2739 23.5835L55.6918 20.7441L54.6646 16.6063H52.7985L55.4008 25.9554L55.3837 26.0593C55.2296 26.9423 54.6818 27.1155 53.723 27.0462V28.7428C56.3424 28.916 57.0786 27.8253 57.5237 25.6438L59.5439 16.6062ZM63.961 20.2593C63.961 21.2288 63.5329 21.5404 62.831 21.5404H62.266V23.2718H62.7283C63.5844 23.2718 63.961 23.6874 63.961 24.8127V25.7649C63.961 26.8384 63.5844 27.1327 62.9851 27.1327C62.386 27.1327 62.0093 26.8038 62.0093 25.9381V24.4837H60.2287V25.8169C60.2287 27.7561 61.1875 28.8641 63.0364 28.8641C64.8854 28.8641 65.8442 27.7561 65.8442 25.8169V24.8647C65.8442 23.6354 65.4675 22.7351 64.5259 22.3196C65.4333 21.9387 65.8442 21.125 65.8442 19.8264V19.5149C65.8442 17.5757 64.8854 16.4677 63.0364 16.4677C61.1875 16.4677 60.263 17.5411 60.263 19.4802V20.3805H61.9921V19.3937C61.9921 18.528 62.3859 18.1991 62.9851 18.1991C63.5843 18.1991 63.9609 18.4934 63.9609 19.5841V20.2593L63.961 20.2593Z" fill="#D50D00"/>
<path id="Vector_2" d="M90.7668 26.3537C90.7266 27.2685 90.5362 28.146 90.2051 28.9466H96.9265C97.2916 28.9466 97.3803 27.9003 97.3121 26.3537H90.7669H90.7668Z" fill="#212121"/>
<path id="Vector_3" d="M5.91464 26.3537C5.95484 27.2685 6.14527 28.146 6.47636 28.9466H3.11573C2.75063 28.9466 2.66191 27.9003 2.73013 26.3537H5.91464Z" fill="#212121"/>
<path id="Vector_4" d="M70.2147 26.3537V28.9466H76.3008C75.9661 28.146 75.7752 27.2685 75.7349 26.3537H70.2146H70.2147Z" fill="#212121"/>
<path id="Vector_5" d="M38.2347 26.3537V28.9466H33.8726C34.2072 28.146 34.3981 27.2685 34.4384 26.3537H38.2347Z" fill="#212121"/>
<path id="Vector_6" d="M75.8245 24.7876C76.4055 21.1647 79.5064 18.3969 83.2529 18.3969C86.9959 18.3969 90.0964 21.1648 90.6774 24.7876H97.2071C96.8162 20.2095 95.6518 13.4902 95.6518 13.4902C95.3685 12.995 94.8424 12.6881 94.2759 12.6881L86.9597 11.8697L83.6253 5.85002C82.8321 4.42178 81.3389 3.53387 79.7203 3.53387H70.2148V24.7876H75.8246L75.8245 24.7876ZM72.1572 5.00283H79.3278C80.1735 5.00283 80.9869 5.42849 81.4036 6.17326C81.4036 6.18145 81.4077 6.18551 81.4077 6.18964L84.4629 11.6938H74.5874C73.2452 11.6938 72.1572 10.5934 72.1572 9.2361V5.0029V5.00283Z" fill="#212121"/>
<path id="Vector_7" d="M83.252 20.0244C79.9823 20.0244 77.3291 22.7038 77.3291 26.0103C77.3291 29.3169 79.9823 32 83.252 32C86.5217 32 89.171 29.3169 89.171 26.0103C89.171 22.7038 86.5217 20.0244 83.252 20.0244ZM83.252 28.949C81.6478 28.949 80.3498 27.6325 80.3498 26.0103C80.3498 24.3919 81.6478 23.0754 83.252 23.0754C84.8563 23.0754 86.154 24.3919 86.154 26.0103C86.154 27.6325 84.8562 28.949 83.252 28.949Z" fill="#212121"/>
<path id="Vector_8" d="M13.4295 20.0244C16.6992 20.0244 19.3524 22.7038 19.3524 26.0103C19.3524 29.3169 16.6992 32 13.4295 32C10.1598 32 7.5105 29.3169 7.5105 26.0103C7.5105 22.7038 10.1598 20.0244 13.4295 20.0244ZM13.4295 28.949C15.0338 28.949 16.3317 27.6325 16.3317 26.0103C16.3317 24.3919 15.0338 23.0754 13.4295 23.0754C11.8252 23.0754 10.5275 24.3919 10.5275 26.0103C10.5275 27.6325 11.8253 28.949 13.4295 28.949Z" fill="#212121"/>
<path id="Vector_9" d="M26.8978 20.0244C30.1675 20.0244 32.8207 22.7038 32.8207 26.0103C32.8207 29.3169 30.1675 32 26.8978 32C23.6281 32 20.9788 29.3169 20.9788 26.0103C20.9788 22.7038 23.6281 20.0244 26.8978 20.0244ZM26.8978 28.949C28.502 28.949 29.8 27.6325 29.8 26.0103C29.8 24.3919 28.502 23.0754 26.8978 23.0754C25.2935 23.0754 23.9958 24.3919 23.9958 26.0103C23.9958 27.6325 25.2936 28.949 26.8978 28.949Z" fill="#212121"/>
<path id="Vector_10" d="M67.7888 2.80954V28.969H69.7032V2.80954H67.7888Z" fill="#212121"/>
<path id="Vector_11" d="M87.5079 14.1606C87.2549 14.1606 87.0498 13.9532 87.0498 13.6974V7.98819C87.0498 7.73231 87.2549 7.52498 87.5079 7.52498C87.7609 7.52498 87.966 7.73224 87.966 7.98819V13.6974C87.966 13.9532 87.7609 14.1606 87.5079 14.1606Z" fill="#212121"/>
</g>
</g>
</g>
<defs>
<clipPath id="clip0_6_2951">
<rect width="97.3333" height="32" fill="white"/>
</clipPath>
</defs>
</svg>
