<svg width="14" height="13" viewBox="0 0 14 13" fill="none" xmlns="http://www.w3.org/2000/svg">
<g id="&#240;&#159;&#166;&#134; icon &#34;map&#34;">
<path id="Vector" d="M12.9891 1.66953L8.80796 0.5L4.61463 1.68121L0.715057 0.574991C0.631496 0.551283 0.543575 0.547276 0.458204 0.563284C0.372833 0.579292 0.292337 0.61488 0.223042 0.667251C0.153747 0.719621 0.0975404 0.787348 0.0588396 0.865109C0.0201389 0.94287 -1.8916e-06 1.02855 1.33249e-10 1.11541V10.6817C0.000424853 10.8283 0.0484404 10.9708 0.136823 11.0877C0.225206 11.2047 0.349176 11.2898 0.490083 11.3302L4.61367 12.5L8.80883 11.3183L12.7686 12.4259C12.8521 12.4493 12.9398 12.453 13.025 12.4367C13.1101 12.4205 13.1904 12.3848 13.2594 12.3324C13.3285 12.28 13.3845 12.2123 13.423 12.1347C13.4615 12.057 13.4816 11.9715 13.4816 11.8848V2.31869C13.4812 2.17166 13.4329 2.02875 13.3441 1.91161C13.2552 1.79448 13.1306 1.70949 12.9891 1.66953ZM4.12873 11.428L0.898771 10.5118V1.56134L4.12873 2.47763V11.428ZM8.35899 10.5111L5.0275 11.4495V2.49864L8.35899 1.56021V10.5111ZM12.5828 11.4405L9.25776 10.5106V1.55906L12.5828 2.48904V11.4405Z" fill="#D50D00"/>
</g>
</svg>
