<svg width="16" height="12" viewBox="0 0 16 12" fill="none" xmlns="http://www.w3.org/2000/svg">
<path id="Union" fill-rule="evenodd" clip-rule="evenodd" d="M15.0001 12H1C0.734786 12 0.480431 11.8947 0.292894 11.7072C0.105357 11.5196 0 11.2653 0 11V1C0 0.734786 0.105357 0.480431 0.292894 0.292894C0.480431 0.105357 0.734786 0 1 0H15.0001C15.2653 0 15.5196 0.105357 15.7072 0.292894C15.8947 0.480431 16.0001 0.734786 16.0001 1V11C16.0001 11.2653 15.8947 11.5196 15.7072 11.7072C15.5196 11.8947 15.2653 12 15.0001 12ZM1 1V11H15.0001V1H1ZM3.50016 9.65019C3.39407 9.65019 3.29233 9.60804 3.21732 9.53303C3.1423 9.45801 3.10016 9.35627 3.10016 9.25019V2.75016C3.10016 2.64407 3.1423 2.54233 3.21732 2.46732C3.29233 2.3923 3.39407 2.35016 3.50016 2.35016C3.60625 2.35016 3.70799 2.3923 3.783 2.46732C3.85802 2.54233 3.90016 2.64407 3.90016 2.75016V9.25019C3.90016 9.35627 3.85802 9.45801 3.783 9.53303C3.70799 9.60804 3.60625 9.65019 3.50016 9.65019ZM6.17722 9.53303C6.25223 9.60804 6.35397 9.65019 6.46006 9.65019C6.56615 9.65019 6.66789 9.60804 6.7429 9.53303C6.81792 9.45801 6.86006 9.35627 6.86006 9.25019V2.75016C6.86006 2.64407 6.81792 2.54233 6.7429 2.46732C6.66789 2.3923 6.56615 2.35016 6.46006 2.35016C6.35397 2.35016 6.25223 2.3923 6.17722 2.46732C6.1022 2.54233 6.06006 2.64407 6.06006 2.75016V9.25019C6.06006 9.35627 6.1022 9.45801 6.17722 9.53303ZM9.49998 9.65019C9.39389 9.65019 9.29215 9.60804 9.21713 9.53303C9.14212 9.45801 9.09998 9.35627 9.09998 9.25019V2.75016C9.09998 2.64407 9.14212 2.54233 9.21713 2.46732C9.29215 2.3923 9.39389 2.35016 9.49998 2.35016C9.60606 2.35016 9.70781 2.3923 9.78282 2.46732C9.85783 2.54233 9.89998 2.64407 9.89998 2.75016V9.25019C9.89998 9.35627 9.85783 9.45801 9.78282 9.53303C9.70781 9.60804 9.60606 9.65019 9.49998 9.65019ZM12.2173 9.53303C12.2923 9.60804 12.3941 9.65019 12.5002 9.65019C12.6062 9.65019 12.708 9.60804 12.783 9.53303C12.858 9.45801 12.9002 9.35627 12.9002 9.25019V2.75016C12.9002 2.64407 12.858 2.54233 12.783 2.46732C12.708 2.3923 12.6062 2.35016 12.5002 2.35016C12.3941 2.35016 12.2923 2.3923 12.2173 2.46732C12.1423 2.54233 12.1002 2.64407 12.1002 2.75016V9.25019C12.1002 9.35627 12.1423 9.45801 12.2173 9.53303Z" fill="currentColor"/>
</svg>
