<svg width="284" height="8" viewBox="0 0 284 8" fill="none" xmlns="http://www.w3.org/2000/svg">
<path d="M0.333333 4C0.333333 5.47276 1.52724 6.66667 3 6.66667C4.47276 6.66667 5.66667 5.47276 5.66667 4C5.66667 2.52724 4.47276 1.33333 3 1.33333C1.52724 1.33333 0.333333 2.52724 0.333333 4ZM283.354 4.35355C283.549 4.15829 283.549 3.84171 283.354 3.64645L280.172 0.464466C279.976 0.269204 279.66 0.269204 279.464 0.464466C279.269 0.659728 279.269 0.976311 279.464 1.17157L282.293 4L279.464 6.82843C279.269 7.02369 279.269 7.34027 279.464 7.53553C279.66 7.7308 279.976 7.7308 280.172 7.53553L283.354 4.35355ZM3 4.5H283V3.5H3V4.5Z" fill="#C5C5C5"/>
</svg>
