<svg width="19" height="26" viewBox="0 0 19 26" fill="none" xmlns="http://www.w3.org/2000/svg">
<path d="M13.4972 8.20248C13.4972 5.80272 11.5451 3.85059 9.14535 3.85059C6.74559 3.85059 4.79346 5.80272 4.79346 8.20248C4.79346 10.6022 6.74559 12.5544 9.14535 12.5544C11.5451 12.5544 13.4972 10.6022 13.4972 8.20248ZM5.66011 8.20248C5.66011 6.28068 7.22355 4.71724 9.14535 4.71724C11.0672 4.71724 12.6306 6.28068 12.6306 8.20248C12.6306 10.1243 11.0672 11.6877 9.14535 11.6877C7.22355 11.6877 5.66011 10.1243 5.66011 8.20248Z" fill="currentColor"/>
<path d="M12.2779 18.9385C14.5394 15.5837 17.3469 10.8804 17.3469 8.202C17.3469 3.67937 13.6675 0 9.14491 0C4.62229 0 0.943784 3.6798 0.943784 8.20243C0.943784 10.8821 3.75434 15.5889 6.0163 18.9437C2.33693 19.4455 0 20.7581 0 22.3644C0 24.7256 4.72065 26 9.16225 26C13.6038 26 18.3245 24.726 18.3245 22.3644C18.3245 20.7516 15.9759 19.4368 12.2787 18.9385H12.2779ZM9.14535 0.867086C13.19 0.867086 16.4807 4.15776 16.4807 8.20243C16.4807 11.7917 10.6382 19.8511 9.14535 21.8513C7.65297 19.8511 1.81044 11.7917 1.81044 8.20243C1.81044 4.15776 5.10111 0.867086 9.14535 0.867086ZM9.16181 25.1333C4.27303 25.1333 0.866219 23.6739 0.866219 22.3644C0.866219 21.4024 2.86472 20.1783 6.56619 19.7501C7.28676 20.7961 8.03229 21.8247 8.80215 22.835C8.84258 22.8876 8.89456 22.9302 8.95406 22.9595C9.01357 22.9888 9.07901 23.004 9.14535 23.004C9.21168 23.004 9.27713 22.9888 9.33663 22.9595C9.39614 22.9302 9.44811 22.8876 9.48854 22.835C9.59731 22.6942 10.5355 21.4704 11.7275 19.7458C15.4481 20.17 17.457 21.3981 17.457 22.3648C17.457 23.6743 14.0502 25.1338 9.16138 25.1338L9.16181 25.1333Z" fill="currentColor"/>
</svg>
