<svg width="27" height="27" viewBox="0 0 27 27" fill="none" xmlns="http://www.w3.org/2000/svg">
<path d="M27 13.5C27 17.106 25.5958 20.4961 23.0459 23.0459C20.4961 25.5957 17.106 27 13.5 27C9.89403 27 6.5039 25.5957 3.95408 23.0459C1.40427 20.4961 0 17.106 0 13.5C0 10.484 0.972762 7.63147 2.81306 5.2509C2.84779 5.20498 2.89128 5.1664 2.94102 5.13739C2.99076 5.10838 3.04575 5.08953 3.10282 5.08191C3.1599 5.0743 3.21791 5.07808 3.27351 5.09303C3.32911 5.10799 3.3812 5.13382 3.42675 5.16903C3.4723 5.20424 3.51042 5.24814 3.5389 5.29818C3.56738 5.34823 3.58565 5.40342 3.59266 5.46057C3.59966 5.51772 3.59527 5.57569 3.57973 5.63113C3.56418 5.68657 3.5378 5.73838 3.50211 5.78355C1.7808 8.01024 0.870968 10.6786 0.870968 13.5C0.870968 20.4637 6.53634 26.129 13.5 26.129C20.4637 26.129 26.129 20.4637 26.129 13.5C26.129 6.53634 20.4637 0.870968 13.5 0.870968C11.2781 0.870968 9.09307 1.45626 7.18108 2.56359C6.7324 2.8239 6.30011 3.1115 5.88665 3.42475L7.15304 3.47021C7.26847 3.47434 7.37752 3.52416 7.45621 3.60871C7.53491 3.69325 7.57679 3.80559 7.57266 3.92102C7.56852 4.03644 7.5187 4.1455 7.43416 4.22419C7.34962 4.30288 7.23727 4.34477 7.12185 4.34063L4.71324 4.25413C4.64721 4.25176 4.58259 4.23439 4.52427 4.20334C4.46595 4.17229 4.41545 4.12838 4.37661 4.07493C4.31085 3.98414 4.28264 3.87148 4.29784 3.7604C4.29817 3.75812 4.29823 3.75583 4.29861 3.75354C4.2997 3.74625 4.30138 3.73906 4.30285 3.73177C4.30452 3.72299 4.30648 3.71424 4.30873 3.70553L4.31009 3.69938L4.97132 1.38184C5.00432 1.27229 5.0791 1.18012 5.1795 1.12525C5.2799 1.07039 5.39786 1.05723 5.50788 1.08863C5.6179 1.12003 5.71115 1.19346 5.76747 1.29305C5.82379 1.39265 5.83866 1.5104 5.80887 1.62087L5.52809 2.60496C5.91905 2.31837 6.3251 2.05296 6.7445 1.80987C8.78904 0.625845 11.125 0 13.5 0C17.106 0 20.4961 1.40427 23.0459 3.95408C25.5957 6.5039 27 9.89403 27 13.5Z" fill="currentColor"/>
</svg>
