<svg width="34" height="25" viewBox="0 0 34 25" fill="none" xmlns="http://www.w3.org/2000/svg">
<path fill-rule="evenodd" clip-rule="evenodd" d="M31.719 21.4295H30.3185C30.141 21.4295 30.0029 21.3111 29.9437 21.1533C29.3125 18.8454 25.9986 18.806 25.3279 21.1533C25.2687 21.3111 25.1109 21.4295 24.9531 21.4295H16.4316C16.254 21.4295 16.0962 21.3111 16.0568 21.1533C15.4058 18.8454 12.0919 18.806 11.4212 21.1533C11.3818 21.3111 11.224 21.4295 11.0464 21.4295H8.36372C8.18619 21.4295 8.02839 21.3111 7.98893 21.1533C7.35771 18.8454 4.04378 18.806 3.37311 21.1533C3.25475 21.5676 2.62353 21.4295 1.93312 21.4295C0.867934 21.4295 0 20.5616 0 19.4964V16.2613C0 16.0444 0.177532 15.8668 0.394515 15.8668H23.0594V7.48338C23.0594 7.2664 23.2369 7.08887 23.4539 7.08887H28.8785C31.5218 7.08887 33.6719 9.23898 33.6719 11.8822V19.4964C33.6521 20.5616 32.7842 21.4295 31.719 21.4295ZM30.6144 20.6405H31.719C32.3503 20.6405 32.8631 20.1276 32.8631 19.4964V11.8822C32.8631 9.67294 31.0681 7.8779 28.8588 7.8779H23.8287V16.2613C23.8287 16.4783 23.6512 16.6559 23.4342 16.6559H0.769305V19.4964C0.769305 20.1276 1.28217 20.6405 1.9134 20.6405H2.70243C3.74789 17.9578 7.59442 17.9578 8.63988 20.6405H10.7703C11.8157 17.9578 15.6623 17.9578 16.7077 20.6405H24.6572C25.7224 17.9578 29.5492 17.9578 30.6144 20.6405Z" fill="currentColor"/>
<path fill-rule="evenodd" clip-rule="evenodd" d="M33.2577 14.4663H27.9317C26.7284 14.4663 25.7619 13.4997 25.7619 12.2965V7.48338C25.7619 7.2664 25.9394 7.08887 26.1564 7.08887H28.8785C31.5021 7.08887 33.6522 9.23898 33.6522 11.8822V14.0718C33.6522 14.2888 33.4746 14.4663 33.2577 14.4663ZM26.5509 7.8779V12.2965C26.5509 13.0658 27.1624 13.6773 27.9317 13.6773H32.8631V11.8822C32.8631 9.67294 31.0681 7.8779 28.8588 7.8779H26.5509ZM13.7489 24.9999C11.9736 24.9999 10.5533 23.5599 10.5533 21.8043C10.5533 20.0487 11.9736 18.6087 13.7489 18.6087C15.5045 18.6087 16.9247 20.0487 16.9247 21.8043C16.9247 23.5599 15.5045 24.9999 13.7489 24.9999ZM13.7489 19.3977C12.4075 19.3977 11.3423 20.4827 11.3423 21.8043C11.3423 23.1259 12.4075 24.2108 13.7489 24.2108C15.0705 24.2108 16.1357 23.1259 16.1357 21.8043C16.1357 20.4827 15.0705 19.3977 13.7489 19.3977ZM5.66132 24.9999C3.90573 24.9999 2.48547 23.5599 2.48547 21.8043C2.48547 20.0487 3.90573 18.6087 5.66132 18.6087C7.43664 18.6087 8.85689 20.0487 8.85689 21.8043C8.85689 23.5599 7.43664 24.9999 5.66132 24.9999ZM5.66132 19.3977C4.3397 19.3977 3.2745 20.4827 3.2745 21.8043C3.2745 23.1259 4.3397 24.2108 5.66132 24.2108C7.00267 24.2108 8.06786 23.1259 8.06786 21.8043C8.06786 20.4827 7.00267 19.3977 5.66132 19.3977ZM27.6358 24.9999C25.8802 24.9999 24.4402 23.5599 24.4402 21.8043C24.4402 20.0487 25.8802 18.6087 27.6358 18.6087C29.3914 18.6087 30.8314 20.0487 30.8314 21.8043C30.8314 23.5599 29.3914 24.9999 27.6358 24.9999ZM27.6358 19.3977C26.3142 19.3977 25.2293 20.4827 25.2293 21.8043C25.2293 23.1259 26.3142 24.2108 27.6358 24.2108C28.9574 24.2108 30.0424 23.1259 30.0424 21.8043C30.0424 20.4827 28.9574 19.3977 27.6358 19.3977Z" fill="currentColor"/>
<path fill-rule="evenodd" clip-rule="evenodd" d="M5.66136 23.3824C3.60988 23.3824 3.60988 20.2263 5.66136 20.2263C7.73256 20.2263 7.73256 23.3824 5.66136 23.3824ZM5.66136 21.0153C4.63562 21.0153 4.63562 22.5934 5.66136 22.5934C6.70682 22.5934 6.70682 21.0153 5.66136 21.0153ZM13.7489 23.3824C11.6777 23.3824 11.6777 20.2263 13.7489 20.2263C15.8004 20.2263 15.8201 23.3824 13.7489 23.3824ZM13.7489 21.0153C12.7035 21.0153 12.7035 22.5934 13.7489 22.5934C14.7747 22.5934 14.7747 21.0153 13.7489 21.0153ZM27.6359 23.3824C25.5647 23.3824 25.5647 20.2263 27.6359 20.2263C29.7071 20.2263 29.7071 23.3824 27.6359 23.3824ZM27.6359 21.0153C26.6101 21.0153 26.6101 22.5934 27.6359 22.5934C28.6616 22.5934 28.6616 21.0153 27.6359 21.0153ZM23.4343 21.4295C23.2173 21.4295 23.0398 21.252 23.0398 21.035V16.2614C23.0398 15.7485 23.8288 15.7485 23.8288 16.2614V21.035C23.8288 21.252 23.6513 21.4295 23.4343 21.4295ZM27.0244 16.2417C26.2551 16.2417 25.4266 16.3995 25.4266 15.8472C25.4266 15.2948 26.2551 15.4526 27.0244 15.4526C27.5372 15.4526 27.5372 16.2417 27.0244 16.2417ZM33.2577 18.5496C30.9695 18.5496 31.1076 18.7074 31.1076 16.4192C31.1076 15.4132 32.3503 15.6302 33.2577 15.6302C33.4747 15.6302 33.6522 15.8077 33.6522 16.0247V18.1551C33.6522 18.3721 33.4747 18.5496 33.2577 18.5496ZM31.8966 16.4192V17.7803H32.8632V16.4192H31.8966ZM21.3039 16.6559H3.6296C3.53097 16.6559 3.43234 16.6165 3.35344 16.5376L0.434028 13.6576C0.355125 13.5984 0.315674 13.4998 0.315674 13.3814V7.52289C0.315674 7.3059 0.493206 7.12837 0.710189 7.12837H18.5226V5.21497C18.5226 4.32731 19.2327 3.61719 20.1203 3.61719H22.9214C24.5981 3.61719 24.5981 6.16181 22.9214 6.16181H21.6984V16.2614C21.6984 16.4784 21.5209 16.6559 21.3039 16.6559ZM3.78741 15.8669H20.9094V5.7673C20.9094 4.80073 23.3948 5.98428 23.3948 4.89936C23.3948 4.6232 23.1778 4.40622 22.9214 4.40622H20.1006C19.6666 4.40622 19.3116 4.78101 19.3116 5.21497V7.52289C19.3116 7.73987 19.1341 7.9174 18.9171 7.9174H1.1047V13.2236L3.78741 15.8669Z" fill="currentColor"/>
<path fill-rule="evenodd" clip-rule="evenodd" d="M5.16815 14.5848C4.95116 14.5848 4.77363 14.4073 4.77363 14.1903V9.87034C4.77363 9.35747 5.56266 9.35747 5.56266 9.87034V14.1903C5.56266 14.4073 5.38513 14.5848 5.16815 14.5848ZM9.35001 14.5848C9.13302 14.5848 8.95549 14.4073 8.95549 14.1903V9.87034C8.95549 9.35747 9.74452 9.35747 9.74452 9.87034V14.1903C9.74452 14.4073 9.56699 14.5848 9.35001 14.5848ZM13.5121 14.5848C13.2952 14.5848 13.1176 14.4073 13.1176 14.1903V9.87034C13.1176 9.35747 13.9067 9.35747 13.9067 9.87034V14.1903C13.9067 14.4073 13.7291 14.5848 13.5121 14.5848ZM17.694 14.5848C17.477 14.5848 17.2995 14.4073 17.2995 14.1903V9.87034C17.2995 9.35747 18.0885 9.35747 18.0885 9.87034V14.1903C18.0885 14.4073 17.911 14.5848 17.694 14.5848ZM0.710123 8.56844C-0.118359 8.56844 -0.0789075 5.49122 2.24873 4.72192C2.38681 3.40029 3.3731 2.3351 4.65528 2.09839C5.3654 -0.248972 8.5018 -0.761842 9.90233 1.25019C10.9281 0.638687 12.2102 0.678138 13.1768 1.38827C15.0705 -0.229247 18.0491 1.09238 18.0491 3.637C18.483 3.81453 19.8441 4.62329 19.2326 5.09671C18.7395 5.51095 18.6211 4.58384 17.5362 4.30768C17.1614 4.20905 17.26 3.83426 17.26 3.61728C17.26 1.6447 14.814 0.71759 13.4924 2.1773C13.019 2.69017 12.7428 1.60525 11.4409 1.60525C10.2968 1.60525 10.139 2.31538 9.70507 2.21675C9.58672 2.19702 9.48809 2.11812 9.42891 1.99976C8.54125 0.145543 5.75992 0.500606 5.3654 2.53236C5.32595 2.70989 5.18787 2.82825 5.01034 2.84797C3.88597 2.9466 3.01804 3.89344 3.01804 4.99808C3.01804 5.19534 2.89968 5.35314 2.70243 5.3926C1.51888 5.66876 0.7693 6.87203 1.08491 8.0753C1.14409 8.33173 0.946832 8.56844 0.710123 8.56844Z" fill="currentColor"/>
<path fill-rule="evenodd" clip-rule="evenodd" d="M16.471 5.13641C16.254 5.13641 16.0765 4.95888 16.0765 4.7419C16.0765 3.49917 14.8535 2.86795 14.1631 3.77534C13.8475 4.18958 13.2163 3.71616 13.5319 3.30192C14.676 1.80276 16.8655 2.72987 16.8655 4.7419C16.8655 4.95888 16.688 5.13641 16.471 5.13641ZM6.37143 3.83451C5.68103 3.83451 5.95719 2.47344 6.58841 2.07892C7.85086 1.30962 9.3303 2.25645 8.77797 2.80877C8.28483 3.30192 8.0284 2.11837 7.00266 2.7496C6.56869 3.02576 7.00266 3.79506 6.39116 3.83451H6.37143Z" fill="currentColor"/>
</svg>
