<svg width="30" height="20" viewBox="0 0 30 20" fill="none" xmlns="http://www.w3.org/2000/svg">
<path id="Vector" d="M25.3333 4H24H21.3333H18.6667V12H1.33333V16H2.66667C2.66667 17.0609 3.08809 18.0783 3.83824 18.8284C4.58839 19.5786 5.6058 20 6.66667 20C7.72753 20 8.74495 19.5786 9.49509 18.8284C10.2452 18.0783 10.6667 17.0609 10.6667 16H18.6667C18.6667 17.0609 19.0881 18.0783 19.8382 18.8284C20.5884 19.5786 21.6058 20 22.6667 20C23.7275 20 24.7449 19.5786 25.4951 18.8284C26.2452 18.0783 26.6667 17.0609 26.6667 16H29.3333V9.33333L25.3333 4ZM6.66667 18C6.13623 18 5.62753 17.7893 5.25245 17.4142C4.87738 17.0391 4.66667 16.5304 4.66667 16C4.66667 15.4696 4.87738 14.9609 5.25245 14.5858C5.62753 14.2107 6.13623 14 6.66667 14C7.1971 14 7.70581 14.2107 8.08088 14.5858C8.45595 14.9609 8.66667 15.4696 8.66667 16C8.66667 16.5304 8.45595 17.0391 8.08088 17.4142C7.70581 17.7893 7.1971 18 6.66667 18ZM22.6667 18C22.1362 18 21.6275 17.7893 21.2525 17.4142C20.8774 17.0391 20.6667 16.5304 20.6667 16C20.6667 15.4696 20.8774 14.9609 21.2525 14.5858C21.6275 14.2107 22.1362 14 22.6667 14C23.1971 14 23.7058 14.2107 24.0809 14.5858C24.456 14.9609 24.6667 15.4696 24.6667 16C24.6667 16.5304 24.456 17.0391 24.0809 17.4142C23.7058 17.7893 23.1971 18 22.6667 18ZM21.3333 9.33333V6H24.6667L27.28 9.33333H21.3333ZM22.6667 2.66667H17.3333V10.6667H2.66667L0.76 4H0V1.33333H16L17.3333 0H22.6667V2.66667Z" fill="#D50D00"/>
</svg>
