<svg width="17" height="17" viewBox="0 0 17 17" fill="none" xmlns="http://www.w3.org/2000/svg">
<g id="&#240;&#159;&#166;&#134; icon &#34;x circle&#34;" opacity="0.9">
<path id="Vector" d="M10.6941 5.57324L8.5 7.76731L6.30593 5.57324L5.74023 6.13892L7.93433 8.33299L5.74023 10.5271L6.30593 11.0928L8.5 8.89869L10.6941 11.0928L11.2598 10.5271L9.06568 8.33299L11.2598 6.13892L10.6941 5.57324Z" fill="currentColor"/>
<path id="Vector_2" d="M8.49993 2.48535C6.90863 2.48535 5.38251 3.11749 4.25729 4.24271C3.13207 5.36793 2.49993 6.89405 2.49993 8.48535C2.49993 10.0767 3.13207 11.6028 4.25729 12.728C5.38251 13.8532 6.90863 14.4854 8.49993 14.4854C10.0912 14.4854 11.6174 13.8532 12.7426 12.728C13.8678 11.6028 14.4999 10.0767 14.4999 8.48535C14.4999 6.89405 13.8678 5.36793 12.7426 4.24271C11.6174 3.11749 10.0912 2.48535 8.49993 2.48535ZM12.1769 12.1623C10.1494 14.1898 6.85045 14.1898 4.82298 12.1623C2.79552 10.1348 2.79552 6.83587 4.82298 4.8084C6.85045 2.78094 10.1494 2.78094 12.1769 4.8084C14.2043 6.83587 14.2043 10.1348 12.1769 12.1623Z" fill="currentColor"/>
</g>
</svg>
